<?xml version="1.0" standalone="no"?>
<!DOCTYPE svg PUBLIC "-//W3C//DTD SVG 20010904//EN"
 "http://www.w3.org/TR/2001/REC-SVG-20010904/DTD/svg10.dtd">
<svg version="1.0" xmlns="http://www.w3.org/2000/svg"
 width="286.000000pt" height="286.000000pt" viewBox="0 0 286.000000 286.000000"
 preserveAspectRatio="xMidYMid meet">
<metadata>
Created by potrace 1.16, written by Peter Selinger 2001-2019
</metadata>
<g transform="translate(0.000000,286.000000) scale(0.100000,-0.100000)"
fill="#000000" stroke="none">
<path d="M1745 2319 c-16 -10 -34 -21 -40 -23 -5 -2 23 -37 62 -78 91 -95 133
-177 133 -261 0 -122 -78 -217 -178 -217 -54 0 -73 23 -44 53 22 23 56 96 49
103 -7 7 -71 -30 -81 -46 -22 -37 -93 -91 -143 -110 -40 -15 -78 -20 -146 -20
l-92 0 38 -31 c33 -27 37 -35 37 -79 0 -82 -65 -140 -157 -140 -72 0 -116 16
-166 61 -60 52 -104 142 -114 231 l-8 67 -88 -51 -89 -52 7 -45 c25 -178 135
-337 278 -404 58 -28 167 -50 195 -40 31 11 8 -5 -86 -60 l-94 -55 54 -30 c54
-31 164 -72 193 -72 47 0 196 144 240 231 22 43 55 146 55 172 0 5 -7 6 -16 3
-12 -5 -15 -2 -9 11 4 10 12 44 19 75 l11 57 25 -20 c14 -10 40 -24 59 -30 29
-10 32 -13 17 -21 -16 -9 -13 -13 19 -35 83 -56 218 -84 338 -69 55 7 55 8 77
58 12 27 28 80 36 117 15 71 19 201 6 201 -4 0 -18 -7 -31 -16 l-23 -17 8 34
c5 19 9 79 9 134 0 95 -2 103 -34 159 -46 79 -139 176 -221 231 -37 25 -69 45
-71 44 -2 0 -17 -9 -34 -20z"/>
<path d="M1540 671 c0 -138 2 -150 23 -182 33 -49 61 -60 144 -57 123 5 143
41 143 248 l0 140 -40 0 -40 0 0 -140 c0 -136 -1 -142 -25 -165 -29 -30 -64
-32 -96 -6 -23 18 -24 26 -27 165 l-3 146 -40 0 -39 0 0 -149z"/>
<path d="M1930 625 l0 -195 40 0 40 0 0 195 0 195 -40 0 -40 0 0 -195z"/>
<path d="M2106 788 c-3 -18 -7 -66 -10 -105 -5 -71 -4 -73 20 -79 15 -4 34 0
49 10 73 48 158 -24 108 -92 -26 -36 -81 -41 -128 -13 l-34 20 -21 -28 -20
-29 26 -17 c54 -35 166 -36 219 -1 29 19 55 71 55 111 0 43 -27 93 -59 109
-35 19 -103 21 -133 5 -20 -11 -21 -9 -14 21 3 18 6 39 6 46 0 11 20 14 85 14
l85 0 0 30 0 30 -115 0 -114 0 -5 -32z"/>
</g>
</svg>
